# xmcd CD database file
#
# Track frame offsets:
#	150
#	14594
#	31440
#	46102
#	60225
#	77404
#	89941
#	109763
#	125651
#	142473
#	156435
#	173188
#	189991
#
# Disc length: 2703 seconds
#
# Revision: 2
# Processed by: cddbd v1.5PL3 Copyright (c) Steve Scherf et al.
# Submitted via: cdripper 1.0.2
#
DISCID=b40a8d0d
DTITLE=Terceira Dimensão - Terceira Dimensão
DYEAR=2002
DGENRE=Country
TTITLE0=Cunhado (Fale pro seu irmão)
TTITLE1=Oh! Coitado
TTITLE2=Águas dos Meus olhos
TTITLE3=Me leve pros cafundó
TTITLE4=Casa, comida e um bom salário
TTITLE5=Sou homen bom
TTITLE6=Um pedacinho do meu coração
TTITLE7=Dono da estrada
TTITLE8=Zóio de Jaguatirica
TTITLE9=99 e alguma coisa
TTITLE10=Nos meus sonhos
TTITLE11=Minha Rainha
TTITLE12=O Bode vai pastar
EXTD=YEAR: 2002
EXTT0=
EXTT1=
EXTT2=
EXTT3=
EXTT4=
EXTT5=
EXTT6=
EXTT7=
EXTT8=
EXTT9=
EXTT10=
EXTT11=
EXTT12=
PLAYORDER=
